<?xml version="1.0" encoding="UTF-8"?>
<svg version="1.1" xmlns="http://www.w3.org/2000/svg" width="120" height="120">
<path d="M0 0 C0.495 0.99 0.495 0.99 1 2 C2.051875 1.67 3.10375 1.34 4.1875 1 C7.38873357 0.16033218 9.7411008 -0.19750904 13 0 C10.53721199 2.46278801 8.29323018 2.99771255 5 4 C5.495 4.495 5.495 4.495 6 5 C7.67542976 4.71395102 9.34385343 4.38218767 11 4 C10.01 4.99 9.02 5.98 8 7 C9.0621875 6.96519531 10.124375 6.93039063 11.21875 6.89453125 C25.93603711 6.55186424 25.93603711 6.55186424 32 10 C34.3582726 12.94784075 35 14.22416234 35 18 C38.63 18 42.26 18 46 18 C45.505 20.475 45.505 20.475 45 23 C45.99 23 46.98 23 48 23 C48 21.35 48 19.7 48 18 C50.64 18 53.28 18 56 18 C57.1875 20.1875 57.1875 20.1875 58 23 C56.91357422 25.64257812 56.91357422 25.64257812 55 28 C52.35205078 28.58007812 52.35205078 28.58007812 49.1953125 28.53125 C48.05449219 28.53769531 46.91367188 28.54414062 45.73828125 28.55078125 C43.33723804 28.51703686 40.93619636 28.48318341 38.53515625 28.44921875 C31.7514139 28.30543493 31.7514139 28.30543493 25.94140625 31.33984375 C25.30074219 32.21769531 24.66007812 33.09554687 24 34 C18.73163685 38.15408969 13.31243513 40.89903813 6.96875 43.04296875 C6.3190625 43.35878906 5.669375 43.67460938 5 44 C4.67 44.99 4.34 45.98 4 47 C3.43796875 46.82597656 2.8759375 46.65195313 2.296875 46.47265625 C-0.24556755 45.94946654 -2.18452337 46.09795162 -4.75 46.4375 C-5.94882813 46.59025391 -5.94882813 46.59025391 -7.171875 46.74609375 C-7.77515625 46.82988281 -8.3784375 46.91367188 -9 47 C-8.505 46.01 -8.505 46.01 -8 45 C-5.93359375 44.3671875 -5.93359375 44.3671875 -3.4375 43.875 C-2.61121094 43.70742187 -1.78492188 43.53984375 -0.93359375 43.3671875 C-0.29550781 43.24601562 0.34257813 43.12484375 1 43 C1 42.34 1 41.68 1 41 C-1.64 41.33 -4.28 41.66 -7 42 C-5.68 41.01 -4.36 40.02 -3 39 C-4.84464844 39.05220703 -4.84464844 39.05220703 -6.7265625 39.10546875 C-8.35936127 39.13362045 -9.9921749 39.16091913 -11.625 39.1875 C-12.43324219 39.21263672 -13.24148437 39.23777344 -14.07421875 39.26367188 C-19.16529786 39.32575821 -22.57790565 38.81157851 -27 36 C-29.88092425 33.02304494 -30 32.33178252 -30 28 C-30.86625 28.185625 -31.7325 28.37125 -32.625 28.5625 C-38.7093979 29.46949099 -44.9117305 28.54887312 -51 28 C-51.19412181 26.52168779 -51.38012131 25.04230684 -51.5625 23.5625 C-51.66691406 22.73878906 -51.77132812 21.91507813 -51.87890625 21.06640625 C-51.91886719 20.38449219 -51.95882812 19.70257813 -52 19 C-51 18 -51 18 -47.28125 17.9375 C-45.68747124 17.95600297 -44.09371995 17.97698258 -42.5 18 C-29.57015361 18.63471851 -29.57015361 18.63471851 -18.73828125 12.62109375 C-13.33166259 7.57896623 -7.0224751 4.99945472 0 3 C0 2.01 0 1.02 0 0 Z M-7.4375 9.3125 C-8.38496094 9.92738281 -9.33242188 10.54226562 -10.30859375 11.17578125 C-13.74231732 13.47159462 -13.74231732 13.47159462 -17 16 C-17 16.66 -17 17.32 -17 18 C-10.73 18 -4.46 18 2 18 C1.34 20.97 0.68 23.94 0 27 C-1.32515625 26.97679688 -2.6503125 26.95359375 -4.015625 26.9296875 C-5.76041103 26.91092636 -7.50520315 26.89272653 -9.25 26.875 C-10.12269531 26.85824219 -10.99539062 26.84148438 -11.89453125 26.82421875 C-13.16103516 26.81455078 -13.16103516 26.81455078 -14.453125 26.8046875 C-15.61569824 26.78897705 -15.61569824 26.78897705 -16.80175781 26.77294922 C-19.25883539 27.02673444 -20.87311542 27.77555848 -23 29 C-21.58894968 32.41003828 -20.15801298 34.08509096 -17 36 C-13.83645245 36.65139942 -13.83645245 36.65139942 -10.4375 36.8125 C-9.30183594 36.90144531 -8.16617188 36.99039063 -6.99609375 37.08203125 C-3.81493905 37.26064596 -3.81493905 37.26064596 -1 35 C-2.65 35 -4.3 35 -6 35 C-5.67 33.68 -5.34 32.36 -5 31 C-3.68 31 -2.36 31 -1 31 C-0.34 31.66 0.32 32.32 1 33 C1.33 32.34 1.66 31.68 2 31 C5.3 31 8.6 31 12 31 C12.495 32.98 12.495 32.98 13 35 C11.68 35 10.36 35 9 35 C9 35.66 9 36.32 9 37 C8.360625 37.103125 7.72125 37.20625 7.0625 37.3125 C6.381875 37.539375 5.70125 37.76625 5 38 C4.67 38.99 4.34 39.98 4 41 C8.54936107 39.69634262 11.8876041 37.93384913 15.6875 35.125 C17.08548828 34.10792969 17.08548828 34.10792969 18.51171875 33.0703125 C20.77675551 31.18574502 22.36780441 29.43464627 24 27 C23.236875 27.309375 22.47375 27.61875 21.6875 27.9375 C19.81210323 28.67893593 17.91315348 29.36228217 16 30 C16.66 28.35 17.32 26.7 18 25 C16.68 25 15.36 25 14 25 C13.505 26.485 13.505 26.485 13 28 C12.236875 27.814375 11.47375 27.62875 10.6875 27.4375 C7.91032625 26.77180827 7.91032625 26.77180827 5 28 C4.34 24.7 3.68 21.4 3 18 C5.45933991 18.11369211 7.9167909 18.24042651 10.375 18.375 C11.07367188 18.4059375 11.77234375 18.436875 12.4921875 18.46875 C17.7734375 18.7734375 17.7734375 18.7734375 20 21 C20.99 19.68 21.98 18.36 23 17 C23.99 17.99 24.98 18.98 26 20 C26.66 19.67 27.32 19.34 28 19 C27.80087757 15.41579626 27.24006976 14.22160285 24.5625 11.75 C18.39228568 8.71901753 11.79254107 8.82124892 5 9 C5.33 10.98 5.66 12.96 6 15 C5.814375 14.360625 5.62875 13.72125 5.4375 13.0625 C4.05753944 10.57873787 4.05753944 10.57873787 0.375 10.25 C-0.73875 10.1675 -1.8525 10.085 -3 10 C-1.68 8.68 -0.36 7.36 1 6 C-2.80824424 6 -4.27289785 7.23854771 -7.4375 9.3125 Z M-45 23 C-45.33 23.99 -45.66 24.98 -46 26 C-45.34 26 -44.68 26 -44 26 C-43.67 25.01 -43.34 24.02 -43 23 C-43.66 23 -44.32 23 -45 23 Z M1 35 C1 35.33 1 35.66 1 36 C2.98 36 4.96 36 7 36 C7 35.67 7 35.34 7 35 C5.02 35 3.04 35 1 35 Z " fill="#41B0F2" transform="translate(58,37)"/>
<path d="M0 0 C2.3582726 2.94784075 3 4.22416234 3 8 C6.63 8 10.26 8 14 8 C13.67 9.65 13.34 11.3 13 13 C13.99 13 14.98 13 16 13 C16 11.35 16 9.7 16 8 C18.64 8 21.28 8 24 8 C25.1875 10.1875 25.1875 10.1875 26 13 C24.91357422 15.64257812 24.91357422 15.64257812 23 18 C20.35205078 18.58007812 20.35205078 18.58007812 17.1953125 18.53125 C16.05449219 18.53769531 14.91367188 18.54414062 13.73828125 18.55078125 C11.33723804 18.51703686 8.93619636 18.48318341 6.53515625 18.44921875 C-0.24977682 18.30629112 -0.24977682 18.30629112 -6.0625 21.33984375 C-6.701875 22.21769531 -7.34125 23.09554687 -8 24 C-14.09377997 28.88652168 -20.59767827 31.64786039 -28 34 C-28 33.01 -28 32.02 -28 31 C-27.29875 30.64808594 -26.5975 30.29617187 -25.875 29.93359375 C-19.48781856 26.6098295 -14.17312459 23.01007482 -9 18 C-10.423125 18.7734375 -10.423125 18.7734375 -11.875 19.5625 C-12.90625 20.036875 -13.9375 20.51125 -15 21 C-15.66 20.67 -16.32 20.34 -17 20 C-16.34 18.35 -15.68 16.7 -15 15 C-18.11785113 15.64644661 -18.11785113 15.64644661 -19 18 C-21.64 18 -24.28 18 -27 18 C-27.66 14.7 -28.32 11.4 -29 8 C-26.54137599 7.94616152 -24.0839245 7.90640962 -21.625 7.875 C-20.57699219 7.84986328 -20.57699219 7.84986328 -19.5078125 7.82421875 C-17.67102514 7.80655733 -15.83398037 7.89696739 -14 8 C-13.34 8.66 -12.68 9.32 -12 10 C-10.68 8.68 -9.36 7.36 -8 6 C-7.01 7.485 -7.01 7.485 -6 9 C-5.34 9 -4.68 9 -4 9 C-5.66561435 4.84337335 -5.66561435 4.84337335 -8.80078125 1.84375 C-11.2391853 0.90823441 -13.33739386 0.59134165 -15.9375 0.375 C-17.18853516 0.26285156 -17.18853516 0.26285156 -18.46484375 0.1484375 C-20.98318516 0.00098454 -23.47798361 -0.02706994 -26 0 C-25.67 -0.66 -25.34 -1.32 -25 -2 C-16.6609727 -4.19448087 -7.67063522 -3.97229324 0 0 Z " fill="#EA5E5E" transform="translate(90,47)"/>
<path d="M0 0 C0.33 0.66 0.66 1.32 1 2 C2.051875 1.67 3.10375 1.34 4.1875 1 C7.38873357 0.16033218 9.7411008 -0.19750904 13 0 C10.53721199 2.46278801 8.29323018 2.99771255 5 4 C5.33 4.33 5.66 4.66 6 5 C7.67542976 4.71395102 9.34385343 4.38218767 11 4 C10.154375 4.680625 9.30875 5.36125 8.4375 6.0625 C5.5625 8.85416667 5.5625 8.85416667 6.1875 12.8125 C6.455625 13.864375 6.72375 14.91625 7 16 C5.5 14.625 5.5 14.625 4 13 C4 12.34 4 11.68 4 11 C1.03 11 -1.94 11 -5 11 C-3.35 9.68 -1.7 8.36 0 7 C-5.42225019 8.25128851 -8.86545074 11.05454228 -13.046875 14.5390625 C-15 16 -15 16 -17 16 C-17 16.66 -17 17.32 -17 18 C-10.73 18 -4.46 18 2 18 C1 27 1 27 0 28 C-2.5751945 28.12772014 -5.11173199 28.18521854 -7.6875 28.1875 C-8.39583984 28.19974609 -9.10417969 28.21199219 -9.83398438 28.22460938 C-14.25334501 28.23685137 -17.88182376 27.80288822 -22 26 C-22.33 25.34 -22.66 24.68 -23 24 C-23.33 24.99 -23.66 25.98 -24 27 C-24.66 27 -25.32 27 -26 27 C-25.73768207 21.92852 -25.41839439 18.36346054 -21.7734375 14.5078125 C-15.23275972 8.94679571 -8.23222519 5.29422669 0 3 C0 2.01 0 1.02 0 0 Z " fill="#3AA2DB" transform="translate(58,37)"/>
<path d="M0 0 C6 0 12 0 18 0 C18.33 1.65 18.66 3.3 19 5 C17.68 5 16.36 5 15 5 C15 5.66 15 6.32 15 7 C13.02 7.99 13.02 7.99 11 9 C11 11.64 11 14.28 11 17 C10.360625 16.814375 9.72125 16.62875 9.0625 16.4375 C4.92665389 15.84666484 1.1148827 16.41728241 -3 17 C-2.67 16.34 -2.34 15.68 -2 15 C0.06640625 14.3671875 0.06640625 14.3671875 2.5625 13.875 C3.38878906 13.70742187 4.21507813 13.53984375 5.06640625 13.3671875 C5.70449219 13.24601562 6.34257813 13.12484375 7 13 C7 12.34 7 11.68 7 11 C4.36 11.33 1.72 11.66 -1 12 C0.32 11.01 1.64 10.02 3 9 C-1.95 9 -6.9 9 -12 9 C-10.68 8.67 -9.36 8.34 -8 8 C-8 7.34 -8 6.68 -8 6 C-4.37 6 -0.74 6 3 6 C2.01 5.67 1.02 5.34 0 5 C0 3.35 0 1.7 0 0 Z M7 5 C7 5.33 7 5.66 7 6 C8.98 6 10.96 6 13 6 C13 5.67 13 5.34 13 5 C11.02 5 9.04 5 7 5 Z " fill="#389AD7" transform="translate(52,67)"/>
<path d="M0 0 C6.27 0 12.54 0 19 0 C18 9 18 9 17 10 C14.36424457 10.10024126 11.76045755 10.13875021 9.125 10.125 C8.02478516 10.13080078 8.02478516 10.13080078 6.90234375 10.13671875 C3.67566762 10.13084138 1.08156579 10.0271886 -2 9 C-1.125 2.25 -1.125 2.25 0 0 Z " fill="#D2D2D2" transform="translate(41,55)"/>
<path d="M0 0 C1.32 0 2.64 0 4 0 C3.67 1.65 3.34 3.3 3 5 C3.99 5 4.98 5 6 5 C6 3.35 6 1.7 6 0 C8.64 0 11.28 0 14 0 C14.66 1.65 15.32 3.3 16 5 C14.578125 6.984375 14.578125 6.984375 12 9 C8.90543827 9.50627389 5.87526825 9.37696402 2.75 9.25 C1.90953125 9.23195313 1.0690625 9.21390625 0.203125 9.1953125 C-1.86507395 9.14830798 -3.93268441 9.07656724 -6 9 C-6 8.01 -6 7.02 -6 6 C-6.66 6 -7.32 6 -8 6 C-8 6.99 -8 7.98 -8 9 C-8.99 9 -9.98 9 -11 9 C-10.34 6.36 -9.68 3.72 -9 1 C-7.02 1 -5.04 1 -3 1 C-2.67 2.65 -2.34 4.3 -2 6 C-1.34 4.02 -0.68 2.04 0 0 Z " fill="#2E2E2E" transform="translate(100,55)"/>
<path d="M0 0 C1.77074917 -0.02705729 3.54161711 -0.04642195 5.3125 -0.0625 C6.29863281 -0.07410156 7.28476563 -0.08570313 8.30078125 -0.09765625 C11 0 11 0 14 1 C14 1.99 14 2.98 14 4 C15.65 4 17.3 4 19 4 C19 3.34 19 2.68 19 2 C21.475 2.495 21.475 2.495 24 3 C23.25 5.4375 23.25 5.4375 22 8 C20.125 8.5625 20.125 8.5625 18 9 C15.77022004 10.97901574 15.77022004 10.97901574 14 13 C13.34 12.67 12.68 12.34 12 12 C12.66 10.35 13.32 8.7 14 7 C10.88214887 7.64644661 10.88214887 7.64644661 10 10 C7.36 10 4.72 10 2 10 C1.34 6.7 0.68 3.4 0 0 Z " fill="#B2B2B2" transform="translate(61,55)"/>
<path d="M0 0 C2.3582726 2.94784075 3 4.22416234 3 8 C0.69 8.33 -1.62 8.66 -4 9 C-4.4125 8.05125 -4.825 7.1025 -5.25 6.125 C-7.11288352 2.79842229 -7.60755298 2.30154273 -11 1 C-13.41527387 0.54761136 -13.41527387 0.54761136 -15.9375 0.375 C-17.18853516 0.26285156 -17.18853516 0.26285156 -18.46484375 0.1484375 C-20.98318516 0.00098454 -23.47798361 -0.02706994 -26 0 C-25.67 -0.66 -25.34 -1.32 -25 -2 C-16.6609727 -4.19448087 -7.67063522 -3.97229324 0 0 Z " fill="#EE2C2C" transform="translate(90,47)"/>
<path d="M0 0 C1.98 0 3.96 0 6 0 C5.67 1.32 5.34 2.64 5 4 C4.67 4 4.34 4 4 4 C4.2784375 4.9590625 4.2784375 4.9590625 4.5625 5.9375 C4.706875 6.618125 4.85125 7.29875 5 8 C4 9 4 9 0.9375 9.0625 C-0.031875 9.041875 -1.00125 9.02125 -2 9 C-2 7.35 -2 5.7 -2 4 C-2.66 5.65 -3.32 7.3 -4 9 C-4.66 9 -5.32 9 -6 9 C-6 8.01 -6 7.02 -6 6 C-6.66 6 -7.32 6 -8 6 C-8 6.99 -8 7.98 -8 9 C-8.99 9 -9.98 9 -11 9 C-10.125 3.25 -10.125 3.25 -9 1 C-6.03 1.33 -3.06 1.66 0 2 C0 1.34 0 0.68 0 0 Z " fill="#333333" transform="translate(26,55)"/>
<path d="M0 0 C1.18613892 0.00785522 1.18613892 0.00785522 2.39624023 0.01586914 C3.67724609 0.02070312 3.67724609 0.02070312 4.98413086 0.02563477 C5.88196289 0.03401367 6.77979492 0.04239258 7.70483398 0.05102539 C8.6065332 0.05553711 9.50823242 0.06004883 10.43725586 0.06469727 C12.67234712 0.07652315 14.90730835 0.09300319 17.14233398 0.11352539 C17.14233398 0.77352539 17.14233398 1.43352539 17.14233398 2.11352539 C14.17233398 1.78352539 11.20233398 1.45352539 8.14233398 1.11352539 C7.15233398 4.08352539 6.16233398 7.05352539 5.14233398 10.11352539 C2.83233398 10.11352539 0.52233398 10.11352539 -1.85766602 10.11352539 C-2.05178782 8.63521318 -2.23778733 7.15583223 -2.42016602 5.67602539 C-2.52458008 4.85231445 -2.62899414 4.02860352 -2.73657227 3.17993164 C-2.7765332 2.49801758 -2.81649414 1.81610352 -2.85766602 1.11352539 C-1.85766602 0.11352539 -1.85766602 0.11352539 0 0 Z M4.14233398 5.11352539 C3.81233398 6.10352539 3.48233398 7.09352539 3.14233398 8.11352539 C3.80233398 8.11352539 4.46233398 8.11352539 5.14233398 8.11352539 C5.47233398 7.12352539 5.80233398 6.13352539 6.14233398 5.11352539 C5.48233398 5.11352539 4.82233398 5.11352539 4.14233398 5.11352539 Z " fill="#B6B6B6" transform="translate(8.857666015625,54.886474609375)"/>
<path d="M0 0 C0.556875 0.7734375 0.556875 0.7734375 1.125 1.5625 C2.9505709 3.30944393 2.9505709 3.30944393 5.5625 2.6875 C6.696875 2.460625 7.83125 2.23375 9 2 C12.33504207 1.9002977 15.66431112 1.94066957 19 2 C18.34 4.64 17.68 7.28 17 10 C16.67 10 16.34 10 16 10 C16 7.69 16 5.38 16 3 C14.02 3 12.04 3 10 3 C9.67 4.98 9.34 6.96 9 9 C8.34 8.01 7.68 7.02 7 6 C6.46375 6.804375 5.9275 7.60875 5.375 8.4375 C2.56894631 11.46508424 1.03174806 11.72510809 -3 12 C-2.34 11.01 -1.68 10.02 -1 9 C-0.34 9 0.32 9 1 9 C1.66 8.01 2.32 7.02 3 6 C1.68 5.34 0.36 4.68 -1 4 C-1 4.66 -1 5.32 -1 6 C-2.65 6 -4.3 6 -6 6 C-6 5.01 -6 4.02 -6 3 C-6.66 2.67 -7.32 2.34 -8 2 C-4.125 2.875 -4.125 2.875 -3 4 C-2.01 2.68 -1.02 1.36 0 0 Z " fill="#C99898" transform="translate(81,53)"/>
<path d="M0 0 C6 0 12 0 18 0 C18.33 1.65 18.66 3.3 19 5 C12.73 5 6.46 5 0 5 C0 3.35 0 1.7 0 0 Z " fill="#74787A" transform="translate(52,67)"/>
<path d="M0 0 C1.32 0.33 2.64 0.66 4 1 C3.01 1 2.02 1 1 1 C1.020625 1.94875 1.04125 2.8975 1.0625 3.875 C1 7 1 7 0 9 C0.66 9.33 1.32 9.66 2 10 C-11.6332574 11.33257403 -11.6332574 11.33257403 -18 10 C-16.68 9.67 -15.36 9.34 -14 9 C-14 8.01 -14 7.02 -14 6 C-13.34 6 -12.68 6 -12 6 C-12 6.99 -12 7.98 -12 9 C-11.34 9 -10.68 9 -10 9 C-9.87625 8.195625 -9.7525 7.39125 -9.625 6.5625 C-9.41875 5.716875 -9.2125 4.87125 -9 4 C-8.34 3.67 -7.68 3.34 -7 3 C-7 4.65 -7 6.3 -7 8 C-5.35 8 -3.7 8 -2 8 C-2 6.68 -2 5.36 -2 4 C-2.66 3.67 -3.32 3.34 -4 3 C-3.01 3 -2.02 3 -1 3 C-0.67 2.01 -0.34 1.02 0 0 Z " fill="#B1B1B2" transform="translate(32,55)"/>
<path d="M0 0 C0.721875 0.185625 1.44375 0.37125 2.1875 0.5625 C5.12826973 1.01995307 7.14103058 0.73516357 10 0 C8.7315625 1.0209375 8.7315625 1.0209375 7.4375 2.0625 C4.5625 4.85416667 4.5625 4.85416667 5.1875 8.8125 C5.455625 9.864375 5.72375 10.91625 6 12 C4.5 10.625 4.5 10.625 3 9 C3 8.34 3 7.68 3 7 C0.03 7 -2.94 7 -6 7 C-5.195625 6.21625 -4.39125 5.4325 -3.5625 4.625 C-1.01309583 2.28017144 -1.01309583 2.28017144 0 0 Z " fill="#DD2A2B" transform="translate(59,41)"/>
<path d="M0 0 C0.99 0 1.98 0 3 0 C2.67 1.65 2.34 3.3 2 5 C2.66 5 3.32 5 4 5 C4.33 3.68 4.66 2.36 5 1 C5.99 1.33 6.98 1.66 8 2 C7.34 4.31 6.68 6.62 6 9 C4.68 8.67 3.36 8.34 2 8 C2.33 7.34 2.66 6.68 3 6 C2.34 6 1.68 6 1 6 C1 6.99 1 7.98 1 9 C-0.32 8.67 -1.64 8.34 -3 8 C-3 7.01 -3 6.02 -3 5 C-2.34 5 -1.68 5 -1 5 C-0.67 3.35 -0.34 1.7 0 0 Z " fill="#272727" transform="translate(51,55)"/>
<path d="M0 0 C0.33 0.66 0.66 1.32 1 2 C2.051875 1.67 3.10375 1.34 4.1875 1 C7.38873357 0.16033218 9.7411008 -0.19750904 13 0 C10.70295166 2.29704834 9.41124523 2.56828225 6.3125 3.375 C2.9084707 4.32930879 0.06781647 5.38773125 -2.9375 7.25 C-3.948125 7.8275 -4.95875 8.405 -6 9 C-6.99 8.67 -7.98 8.34 -9 8 C-6.47043472 4.9083091 -3.77545388 4.09068668 0 3 C0 2.01 0 1.02 0 0 Z " fill="#42A0E1" transform="translate(58,37)"/>
<path d="M0 0 C1.98 0 3.96 0 6 0 C5.67 1.32 5.34 2.64 5 4 C4.67 4 4.34 4 4 4 C4.2784375 4.9590625 4.2784375 4.9590625 4.5625 5.9375 C4.706875 6.618125 4.85125 7.29875 5 8 C4 9 4 9 0.9375 9.0625 C-0.031875 9.041875 -1.00125 9.02125 -2 9 C-1.34 6.03 -0.68 3.06 0 0 Z " fill="#303030" transform="translate(26,55)"/>
<path d="M0 0 C2.64 0 5.28 0 8 0 C8.66 1.65 9.32 3.3 10 5 C9.34 5.66 8.68 6.32 8 7 C8 5.35 8 3.7 8 2 C7.34 2 6.68 2 6 2 C5.814375 3.2065625 5.814375 3.2065625 5.625 4.4375 C5.41875 5.283125 5.2125 6.12875 5 7 C4.01 7.495 4.01 7.495 3 8 C2.67 6.68 2.34 5.36 2 4 C1.01 4.495 1.01 4.495 0 5 C0 3.35 0 1.7 0 0 Z " fill="#8C8C8C" transform="translate(106,55)"/>
<path d="M0 0 C1.65 0.33 3.3 0.66 5 1 C4.25 3.4375 4.25 3.4375 3 6 C1.125 6.5625 1.125 6.5625 -1 7 C-3.22977996 8.97901574 -3.22977996 8.97901574 -5 11 C-5.66 10.67 -6.32 10.34 -7 10 C-6.34 9.01 -5.68 8.02 -5 7 C-4.34 7 -3.68 7 -3 7 C-3.33 5.68 -3.66 4.36 -4 3 C-2.68 2.67 -1.36 2.34 0 2 C0 1.34 0 0.68 0 0 Z " fill="#3F3F3F" transform="translate(80,57)"/>
<path d="M0 0 C1.4540625 0.0309375 1.4540625 0.0309375 2.9375 0.0625 C2.9375 1.0525 2.9375 2.0425 2.9375 3.0625 C1.6175 3.0625 0.2975 3.0625 -1.0625 3.0625 C-1.3925 4.0525 -1.7225 5.0425 -2.0625 6.0625 C-0.7425 5.7325 0.5775 5.4025 1.9375 5.0625 C0.9475 6.5475 0.9475 6.5475 -0.0625 8.0625 C-1.7125 7.7325 -3.3625 7.4025 -5.0625 7.0625 C-4.02286585 0.0820993 -4.02286585 0.0820993 0 0 Z " fill="#252525" transform="translate(46.0625,55.9375)"/>
<path d="M0 0 C3.3 0 6.6 0 10 0 C10.33 1.65 10.66 3.3 11 5 C6.44615385 5.36923077 6.44615385 5.36923077 4.1875 3.5 C3.5996875 2.7575 3.5996875 2.7575 3 2 C3 2.66 3 3.32 3 4 C1.68 3.67 0.36 3.34 -1 3 C-0.67 2.01 -0.34 1.02 0 0 Z " fill="#939393" transform="translate(60,67)"/>
<path d="M0 0 C1.65 0 3.3 0 5 0 C4.67 0.66 4.34 1.32 4 2 C3.34 1.67 2.68 1.34 2 1 C2 1.99 2 2.98 2 4 C2.99 3.67 3.98 3.34 5 3 C5 4.65 5 6.3 5 8 C4.34 8 3.68 8 3 8 C3 7.01 3 6.02 3 5 C2.34 5 1.68 5 1 5 C1 5.99 1 6.98 1 8 C0.01 8 -0.98 8 -2 8 C-1.34 5.36 -0.68 2.72 0 0 Z " fill="#060606" transform="translate(91,56)"/>
<path d="M0 0 C2.64 0 5.28 0 8 0 C7.67 0.99 7.34 1.98 7 3 C6.34 2.67 5.68 2.34 5 2 C4.67 3.98 4.34 5.96 4 8 C3.01 8 2.02 8 1 8 C1.020625 7.236875 1.04125 6.47375 1.0625 5.6875 C1.12942841 2.89814214 1.12942841 2.89814214 0 0 Z " fill="#171717" transform="translate(7,56)"/>
<path d="M0 0 C0.66 0 1.32 0 2 0 C2.125 2.375 2.125 2.375 2 5 C0 7 0 7 -3.625 7.125 C-4.73875 7.08375 -5.8525 7.0425 -7 7 C-5.25 2.125 -5.25 2.125 -3 1 C-2.67 2.32 -2.34 3.64 -2 5 C-1.34 3.35 -0.68 1.7 0 0 Z " fill="#0A0A0A" transform="translate(112,57)"/>
<path d="M0 0 C1.875 0.3125 1.875 0.3125 4 1 C6 4 6 4 6 8 C5.01 7.67 4.02 7.34 3 7 C2.67 6.34 2.34 5.68 2 5 C1.67 5.99 1.34 6.98 1 8 C0.34 8 -0.32 8 -1 8 C-0.67 5.36 -0.34 2.72 0 0 Z " fill="#1B1B1B" transform="translate(33,56)"/>
<path d="M0 0 C1.98 0 3.96 0 6 0 C5.67 2.97 5.34 5.94 5 9 C3.35 9.33 1.7 9.66 0 10 C0.99 9.67 1.98 9.34 3 9 C3.33 6.69 3.66 4.38 4 2 C3.34 1.67 2.68 1.34 2 1 C1.67 2.32 1.34 3.64 1 5 C0.34 5 -0.32 5 -1 5 C-0.67 3.35 -0.34 1.7 0 0 Z " fill="#B7B7B7" transform="translate(54,55)"/>
<path d="M0 0 C0.66 0.33 1.32 0.66 2 1 C-1.42388092 4.82669043 -4.00724943 6.72278474 -9 8 C-9 7.01 -9 6.02 -9 5 C-7.54735962 4.1361871 -6.0876837 3.28419546 -4.625 2.4375 C-3.40683594 1.72400391 -3.40683594 1.72400391 -2.1640625 0.99609375 C-1.44992188 0.66738281 -0.73578125 0.33867188 0 0 Z " fill="#EC2D2D" transform="translate(71,73)"/>
<path d="M0 0 C0.45375 0.474375 0.9075 0.94875 1.375 1.4375 C2.93258204 3.09027808 2.93258204 3.09027808 5 4 C1.25 5.125 1.25 5.125 -1 4 C-1 4.66 -1 5.32 -1 6 C-2.65 6 -4.3 6 -6 6 C-6 5.01 -6 4.02 -6 3 C-6.66 2.67 -7.32 2.34 -8 2 C-4.125 2.875 -4.125 2.875 -3 4 C-2.01 2.68 -1.02 1.36 0 0 Z " fill="#C8C7C7" transform="translate(81,53)"/>
<path d="M0 0 C1.32 0.33 2.64 0.66 4 1 C3.01 1 2.02 1 1 1 C1.020625 1.94875 1.04125 2.8975 1.0625 3.875 C1 7 1 7 0 9 C0.66 9.33 1.32 9.66 2 10 C0.35 10 -1.3 10 -3 10 C-2.67 8.02 -2.34 6.04 -2 4 C-2.66 3.67 -3.32 3.34 -4 3 C-3.01 3 -2.02 3 -1 3 C-0.67 2.01 -0.34 1.02 0 0 Z " fill="#99C2DA" transform="translate(32,55)"/>
<path d="M0 0 C1.32 0 2.64 0 4 0 C4.66 1.32 5.32 2.64 6 4 C4.68 5.32 3.36 6.64 2 8 C0 2.25 0 2.25 0 0 Z " fill="#151515" transform="translate(67,56)"/>
<path d="M0 0 C0.66 0 1.32 0 2 0 C2 0.99 2 1.98 2 3 C2.99 3.33 3.98 3.66 5 4 C4.34 5.32 3.68 6.64 3 8 C2.67 7.34 2.34 6.68 2 6 C0.68 6.33 -0.64 6.66 -2 7 C-1.34 4.69 -0.68 2.38 0 0 Z " fill="#9B9B9B" transform="translate(73,56)"/>
<path d="M0 0 C1.32 0.33 2.64 0.66 4 1 C3.34 1 2.68 1 2 1 C1.67 3.31 1.34 5.62 1 8 C0.01 8 -0.98 8 -2 8 C-1.125 2.25 -1.125 2.25 0 0 Z " fill="#0A0A0A" transform="translate(17,56)"/>
<path d="M0 0 C0.99 0.33 1.98 0.66 3 1 C2.34 3.31 1.68 5.62 1 8 C-0.32 7.67 -1.64 7.34 -3 7 C-2.01 4.69 -1.02 2.38 0 0 Z " fill="#080808" transform="translate(56,56)"/>
<path d="M0 0 C1.32 0 2.64 0 4 0 C4.33 1.98 4.66 3.96 5 6 C4.01 6.66 3.02 7.32 2 8 C1.34 5.36 0.68 2.72 0 0 Z " fill="#0E0E0E" transform="translate(62,56)"/>
<path d="M0 0 C-3.96 0.66 -7.92 1.32 -12 2 C-11 0 -11 0 -7.6875 -1.25 C-4 -2 -4 -2 0 0 Z " fill="#D62929" transform="translate(61,82)"/>
<path d="M0 0 C2 1.375 2 1.375 4 3 C4 3.66 4 4.32 4 5 C1.36 5 -1.28 5 -4 5 C-2.93453047 2.86906094 -1.70840281 1.63412443 0 0 Z " fill="#C5C5C5" transform="translate(67,60)"/>
<path d="M0 0 C1.32 0.33 2.64 0.66 4 1 C4 2.32 4 3.64 4 5 C2.68 5 1.36 5 0 5 C0 3.35 0 1.7 0 0 Z " fill="#676767" transform="translate(52,67)"/>
<path d="M0 0 C0.33 0.99 0.66 1.98 1 3 C0.67 3.66 0.34 4.32 0 5 C0.99 5 1.98 5 3 5 C2.67 5.99 2.34 6.98 2 8 C2 7.34 2 6.68 2 6 C1.34 6 0.68 6 0 6 C0 6.66 0 7.32 0 8 C-0.66 8 -1.32 8 -2 8 C-1.125 2.25 -1.125 2.25 0 0 Z " fill="#BFBFBF" transform="translate(103,55)"/>
<path d="M0 0 C0.66 0 1.32 0 2 0 C2 1.65 2 3.3 2 5 C0.02 5.99 0.02 5.99 -2 7 C-1.34 4.69 -0.68 2.38 0 0 Z " fill="#111111" transform="translate(112,57)"/>
<path d="M0 0 C1.32 0 2.64 0 4 0 C4 1.32 4 2.64 4 4 C2.68 4 1.36 4 0 4 C0 2.68 0 1.36 0 0 Z " fill="#8D8D8D" transform="translate(47,68)"/>
</svg>
